<svg xmlns="http://www.w3.org/2000/svg" viewBox="0 0 1200 720" width="1200" height="720" role="img" aria-label="Activation function shapes">
<style>svg{font-family: ui-sans-serif, system-ui, -apple-system, Segoe UI, Roboto, Helvetica, Arial, "Apple Color Emoji", "Segoe UI Emoji";}
.axis{stroke:#333;stroke-width:2;opacity:.85}
.grid{stroke:#333;stroke-width:1;opacity:.10}
.curve{fill:none;stroke:#9370DB;stroke-width:4;stroke-linecap:round;stroke-linejoin:round}
.curve2{fill:none;stroke:#268BD2;stroke-width:4;stroke-linecap:round;stroke-linejoin:round}
.curve3{fill:none;stroke:#2AA198;stroke-width:4;stroke-linecap:round;stroke-linejoin:round}
.frame{fill:none;stroke:#333;stroke-width:2;opacity:.25}
.note{fill:#333;opacity:.75;font-size:16px}</style>
<rect class="frame" x="40.000" y="40.000" width="540.000" height="300.000"/>
<line class="grid" x1="40.000" y1="40.000" x2="40.000" y2="340.000"/>
<line class="grid" x1="130.000" y1="40.000" x2="130.000" y2="340.000"/>
<line class="grid" x1="220.000" y1="40.000" x2="220.000" y2="340.000"/>
<line class="grid" x1="310.000" y1="40.000" x2="310.000" y2="340.000"/>
<line class="grid" x1="400.000" y1="40.000" x2="400.000" y2="340.000"/>
<line class="grid" x1="490.000" y1="40.000" x2="490.000" y2="340.000"/>
<line class="grid" x1="580.000" y1="40.000" x2="580.000" y2="340.000"/>
<line class="grid" x1="40.000" y1="340.000" x2="580.000" y2="340.000"/>
<line class="grid" x1="40.000" y1="297.143" x2="580.000" y2="297.143"/>
<line class="grid" x1="40.000" y1="254.286" x2="580.000" y2="254.286"/>
<line class="grid" x1="40.000" y1="211.429" x2="580.000" y2="211.429"/>
<line class="grid" x1="40.000" y1="168.571" x2="580.000" y2="168.571"/>
<line class="grid" x1="40.000" y1="125.714" x2="580.000" y2="125.714"/>
<line class="grid" x1="40.000" y1="82.857" x2="580.000" y2="82.857"/>
<line class="grid" x1="40.000" y1="40.000" x2="580.000" y2="40.000"/>
<line class="axis" x1="310.000" y1="40.000" x2="310.000" y2="340.000"/>
<line class="axis" x1="40.000" y1="297.143" x2="580.000" y2="297.143"/>
<path class="curve" d="M40.000,297.143 L42.250,297.143 L44.500,297.143 L46.750,297.143 L49.000,297.143 L51.250,297.143 L53.500,297.143 L55.750,297.143 L58.000,297.143 L60.250,297.143 L62.500,297.143 L64.750,297.143 L67.000,297.143 L69.250,297.143 L71.500,297.143 L73.750,297.143 L76.000,297.143 L78.250,297.143 L80.500,297.143 L82.750,297.143 L85.000,297.143 L87.250,297.143 L89.500,297.143 L91.750,297.143 L94.000,297.143 L96.250,297.143 L98.500,297.143 L100.750,297.143 L103.000,297.143 L105.250,297.143 L107.500,297.143 L109.750,297.143 L112.000,297.143 L114.250,297.143 L116.500,297.143 L118.750,297.143 L121.000,297.143 L123.250,297.143 L125.500,297.143 L127.750,297.143 L130.000,297.143 L132.250,297.143 L134.500,297.143 L136.750,297.143 L139.000,297.143 L141.250,297.143 L143.500,297.143 L145.750,297.143 L148.000,297.143 L150.250,297.143 L152.500,297.143 L154.750,297.143 L157.000,297.143 L159.250,297.143 L161.500,297.143 L163.750,297.143 L166.000,297.143 L168.250,297.143 L170.500,297.143 L172.750,297.143 L175.000,297.143 L177.250,297.143 L179.500,297.143 L181.750,297.143 L184.000,297.143 L186.250,297.143 L188.500,297.143 L190.750,297.143 L193.000,297.143 L195.250,297.143 L197.500,297.143 L199.750,297.143 L202.000,297.143 L204.250,297.143 L206.500,297.143 L208.750,297.143 L211.000,297.143 L213.250,297.143 L215.500,297.143 L217.750,297.143 L220.000,297.143 L222.250,297.143 L224.500,297.143 L226.750,297.143 L229.000,297.143 L231.250,297.143 L233.500,297.143 L235.750,297.143 L238.000,297.143 L240.250,297.143 L242.500,297.143 L244.750,297.143 L247.000,297.143 L249.250,297.143 L251.500,297.143 L253.750,297.143 L256.000,297.143 L258.250,297.143 L260.500,297.143 L262.750,297.143 L265.000,297.143 L267.250,297.143 L269.500,297.143 L271.750,297.143 L274.000,297.143 L276.250,297.143 L278.500,297.143 L280.750,297.143 L283.000,297.143 L285.250,297.143 L287.500,297.143 L289.750,297.143 L292.000,297.143 L294.250,297.143 L296.500,297.143 L298.750,297.143 L301.000,297.143 L303.250,297.143 L305.500,297.143 L307.750,297.143 L310.000,297.143 L312.250,295.000 L314.500,292.857 L316.750,290.714 L319.000,288.571 L321.250,286.429 L323.500,284.286 L325.750,282.143 L328.000,280.000 L330.250,277.857 L332.500,275.714 L334.750,273.571 L337.000,271.429 L339.250,269.286 L341.500,267.143 L343.750,265.000 L346.000,262.857 L348.250,260.714 L350.500,258.571 L352.750,256.429 L355.000,254.286 L357.250,252.143 L359.500,250.000 L361.750,247.857 L364.000,245.714 L366.250,243.571 L368.500,241.429 L370.750,239.286 L373.000,237.143 L375.250,235.000 L377.500,232.857 L379.750,230.714 L382.000,228.571 L384.250,226.429 L386.500,224.286 L388.750,222.143 L391.000,220.000 L393.250,217.857 L395.500,215.714 L397.750,213.571 L400.000,211.429 L402.250,209.286 L404.500,207.143 L406.750,205.000 L409.000,202.857 L411.250,200.714 L413.500,198.571 L415.750,196.429 L418.000,194.286 L420.250,192.143 L422.500,190.000 L424.750,187.857 L427.000,185.714 L429.250,183.571 L431.500,181.429 L433.750,179.286 L436.000,177.143 L438.250,175.000 L440.500,172.857 L442.750,170.714 L445.000,168.571 L447.250,166.429 L449.500,164.286 L451.750,162.143 L454.000,160.000 L456.250,157.857 L458.500,155.714 L460.750,153.571 L463.000,151.429 L465.250,149.286 L467.500,147.143 L469.750,145.000 L472.000,142.857 L474.250,140.714 L476.500,138.571 L478.750,136.429 L481.000,134.286 L483.250,132.143 L485.500,130.000 L487.750,127.857 L490.000,125.714 L492.250,123.571 L494.500,121.429 L496.750,119.286 L499.000,117.143 L501.250,115.000 L503.500,112.857 L505.750,110.714 L508.000,108.571 L510.250,106.429 L512.500,104.286 L514.750,102.143 L517.000,100.000 L519.250,97.857 L521.500,95.714 L523.750,93.571 L526.000,91.429 L528.250,89.286 L530.500,87.143 L532.750,85.000 L535.000,82.857 L537.250,80.714 L539.500,78.571 L541.750,76.429 L544.000,74.286 L546.250,72.143 L548.500,70.000 L550.750,67.857 L553.000,65.714 L555.250,63.571 L557.500,61.429 L559.750,59.286 L562.000,57.143 L564.250,55.000 L566.500,52.857 L568.750,50.714 L571.000,48.571 L573.250,46.429 L575.500,44.286 L577.750,42.143 L580.000,40.000"/>
<text class="note" x="52.000" y="64.000">ReLU</text>
<rect class="frame" x="620.000" y="40.000" width="540.000" height="300.000"/>
<line class="grid" x1="620.000" y1="40.000" x2="620.000" y2="340.000"/>
<line class="grid" x1="710.000" y1="40.000" x2="710.000" y2="340.000"/>
<line class="grid" x1="800.000" y1="40.000" x2="800.000" y2="340.000"/>
<line class="grid" x1="890.000" y1="40.000" x2="890.000" y2="340.000"/>
<line class="grid" x1="980.000" y1="40.000" x2="980.000" y2="340.000"/>
<line class="grid" x1="1070.000" y1="40.000" x2="1070.000" y2="340.000"/>
<line class="grid" x1="1160.000" y1="40.000" x2="1160.000" y2="340.000"/>
<line class="grid" x1="620.000" y1="340.000" x2="1160.000" y2="340.000"/>
<line class="grid" x1="620.000" y1="265.000" x2="1160.000" y2="265.000"/>
<line class="grid" x1="620.000" y1="190.000" x2="1160.000" y2="190.000"/>
<line class="grid" x1="620.000" y1="115.000" x2="1160.000" y2="115.000"/>
<line class="grid" x1="620.000" y1="40.000" x2="1160.000" y2="40.000"/>
<line class="axis" x1="890.000" y1="40.000" x2="890.000" y2="340.000"/>
<line class="axis" x1="620.000" y1="340.000" x2="1160.000" y2="340.000"/>
<path class="curve" d="M620.000,339.258 L622.250,339.220 L624.500,339.180 L626.750,339.139 L629.000,339.094 L631.250,339.048 L633.500,339.000 L635.750,338.948 L638.000,338.895 L640.250,338.838 L642.500,338.779 L644.750,338.717 L647.000,338.651 L649.250,338.582 L651.500,338.510 L653.750,338.434 L656.000,338.354 L658.250,338.270 L660.500,338.182 L662.750,338.089 L665.000,337.992 L667.250,337.890 L669.500,337.783 L671.750,337.670 L674.000,337.551 L676.250,337.427 L678.500,337.296 L680.750,337.159 L683.000,337.014 L685.250,336.863 L687.500,336.704 L689.750,336.537 L692.000,336.361 L694.250,336.177 L696.500,335.984 L698.750,335.781 L701.000,335.568 L703.250,335.344 L705.500,335.109 L707.750,334.863 L710.000,334.604 L712.250,334.333 L714.500,334.048 L716.750,333.749 L719.000,333.436 L721.250,333.107 L723.500,332.762 L725.750,332.400 L728.000,332.021 L730.250,331.623 L732.500,331.206 L734.750,330.769 L737.000,330.311 L739.250,329.831 L741.500,329.329 L743.750,328.802 L746.000,328.250 L748.250,327.673 L750.500,327.068 L752.750,326.435 L755.000,325.772 L757.250,325.079 L759.500,324.354 L761.750,323.596 L764.000,322.803 L766.250,321.974 L768.500,321.108 L770.750,320.203 L773.000,319.258 L775.250,318.272 L777.500,317.243 L779.750,316.168 L782.000,315.048 L784.250,313.880 L786.500,312.663 L788.750,311.395 L791.000,310.075 L793.250,308.701 L795.500,307.271 L797.750,305.784 L800.000,304.239 L802.250,302.634 L804.500,300.967 L806.750,299.238 L809.000,297.445 L811.250,295.586 L813.500,293.660 L815.750,291.667 L818.000,289.606 L820.250,287.474 L822.500,285.272 L824.750,283.000 L827.000,280.655 L829.250,278.239 L831.500,275.750 L833.750,273.190 L836.000,270.557 L838.250,267.853 L840.500,265.078 L842.750,262.232 L845.000,259.318 L847.250,256.335 L849.500,253.285 L851.750,250.170 L854.000,246.992 L856.250,243.754 L858.500,240.456 L860.750,237.103 L863.000,233.697 L865.250,230.241 L867.500,226.738 L869.750,223.192 L872.000,219.606 L874.250,215.985 L876.500,212.333 L878.750,208.653 L881.000,204.950 L883.250,201.229 L885.500,197.494 L887.750,193.749 L890.000,190.000 L892.250,186.251 L894.500,182.506 L896.750,178.771 L899.000,175.050 L901.250,171.347 L903.500,167.667 L905.750,164.015 L908.000,160.394 L910.250,156.808 L912.500,153.262 L914.750,149.759 L917.000,146.303 L919.250,142.897 L921.500,139.544 L923.750,136.246 L926.000,133.008 L928.250,129.830 L930.500,126.715 L932.750,123.665 L935.000,120.682 L937.250,117.768 L939.500,114.922 L941.750,112.147 L944.000,109.443 L946.250,106.810 L948.500,104.250 L950.750,101.761 L953.000,99.345 L955.250,97.000 L957.500,94.728 L959.750,92.526 L962.000,90.394 L964.250,88.333 L966.500,86.340 L968.750,84.414 L971.000,82.555 L973.250,80.762 L975.500,79.033 L977.750,77.366 L980.000,75.761 L982.250,74.216 L984.500,72.729 L986.750,71.299 L989.000,69.925 L991.250,68.605 L993.500,67.337 L995.750,66.120 L998.000,64.952 L1000.250,63.832 L1002.500,62.757 L1004.750,61.728 L1007.000,60.742 L1009.250,59.797 L1011.500,58.892 L1013.750,58.026 L1016.000,57.197 L1018.250,56.404 L1020.500,55.646 L1022.750,54.921 L1025.000,54.228 L1027.250,53.565 L1029.500,52.932 L1031.750,52.327 L1034.000,51.750 L1036.250,51.198 L1038.500,50.671 L1040.750,50.169 L1043.000,49.689 L1045.250,49.231 L1047.500,48.794 L1049.750,48.377 L1052.000,47.979 L1054.250,47.600 L1056.500,47.238 L1058.750,46.893 L1061.000,46.564 L1063.250,46.251 L1065.500,45.952 L1067.750,45.667 L1070.000,45.396 L1072.250,45.137 L1074.500,44.891 L1076.750,44.656 L1079.000,44.432 L1081.250,44.219 L1083.500,44.016 L1085.750,43.823 L1088.000,43.639 L1090.250,43.463 L1092.500,43.296 L1094.750,43.137 L1097.000,42.986 L1099.250,42.841 L1101.500,42.704 L1103.750,42.573 L1106.000,42.449 L1108.250,42.330 L1110.500,42.217 L1112.750,42.110 L1115.000,42.008 L1117.250,41.911 L1119.500,41.818 L1121.750,41.730 L1124.000,41.646 L1126.250,41.566 L1128.500,41.490 L1130.750,41.418 L1133.000,41.349 L1135.250,41.283 L1137.500,41.221 L1139.750,41.162 L1142.000,41.105 L1144.250,41.052 L1146.500,41.000 L1148.750,40.952 L1151.000,40.906 L1153.250,40.861 L1155.500,40.820 L1157.750,40.780 L1160.000,40.742"/>
<text class="note" x="632.000" y="64.000">Sigmoid</text>
<rect class="frame" x="40.000" y="380.000" width="540.000" height="300.000"/>
<line class="grid" x1="40.000" y1="380.000" x2="40.000" y2="680.000"/>
<line class="grid" x1="130.000" y1="380.000" x2="130.000" y2="680.000"/>
<line class="grid" x1="220.000" y1="380.000" x2="220.000" y2="680.000"/>
<line class="grid" x1="310.000" y1="380.000" x2="310.000" y2="680.000"/>
<line class="grid" x1="400.000" y1="380.000" x2="400.000" y2="680.000"/>
<line class="grid" x1="490.000" y1="380.000" x2="490.000" y2="680.000"/>
<line class="grid" x1="580.000" y1="380.000" x2="580.000" y2="680.000"/>
<line class="grid" x1="40.000" y1="680.000" x2="580.000" y2="680.000"/>
<line class="grid" x1="40.000" y1="605.000" x2="580.000" y2="605.000"/>
<line class="grid" x1="40.000" y1="530.000" x2="580.000" y2="530.000"/>
<line class="grid" x1="40.000" y1="455.000" x2="580.000" y2="455.000"/>
<line class="grid" x1="40.000" y1="380.000" x2="580.000" y2="380.000"/>
<line class="axis" x1="310.000" y1="380.000" x2="310.000" y2="680.000"/>
<line class="axis" x1="40.000" y1="530.000" x2="580.000" y2="530.000"/>
<path class="curve" d="M40.000,679.998 L42.250,679.998 L44.500,679.998 L46.750,679.998 L49.000,679.997 L51.250,679.997 L53.500,679.997 L55.750,679.996 L58.000,679.996 L60.250,679.995 L62.500,679.995 L64.750,679.994 L67.000,679.994 L69.250,679.993 L71.500,679.993 L73.750,679.992 L76.000,679.991 L78.250,679.990 L80.500,679.989 L82.750,679.988 L85.000,679.986 L87.250,679.985 L89.500,679.983 L91.750,679.982 L94.000,679.980 L96.250,679.978 L98.500,679.975 L100.750,679.973 L103.000,679.970 L105.250,679.967 L107.500,679.963 L109.750,679.959 L112.000,679.955 L114.250,679.950 L116.500,679.945 L118.750,679.939 L121.000,679.933 L123.250,679.925 L125.500,679.918 L127.750,679.909 L130.000,679.899 L132.250,679.889 L134.500,679.877 L136.750,679.864 L139.000,679.850 L141.250,679.834 L143.500,679.817 L145.750,679.797 L148.000,679.776 L150.250,679.753 L152.500,679.727 L154.750,679.698 L157.000,679.666 L159.250,679.631 L161.500,679.592 L163.750,679.550 L166.000,679.502 L168.250,679.450 L170.500,679.392 L172.750,679.329 L175.000,679.258 L177.250,679.180 L179.500,679.094 L181.750,679.000 L184.000,678.895 L186.250,678.779 L188.500,678.651 L190.750,678.510 L193.000,678.354 L195.250,678.182 L197.500,677.992 L199.750,677.783 L202.000,677.551 L204.250,677.296 L206.500,677.014 L208.750,676.704 L211.000,676.361 L213.250,675.984 L215.500,675.568 L217.750,675.109 L220.000,674.604 L222.250,674.048 L224.500,673.436 L226.750,672.762 L229.000,672.021 L231.250,671.206 L233.500,670.311 L235.750,669.329 L238.000,668.250 L240.250,667.068 L242.500,665.772 L244.750,664.354 L247.000,662.803 L249.250,661.108 L251.500,659.258 L253.750,657.243 L256.000,655.048 L258.250,652.663 L260.500,650.075 L262.750,647.271 L265.000,644.239 L267.250,640.967 L269.500,637.445 L271.750,633.660 L274.000,629.606 L276.250,625.272 L278.500,620.655 L280.750,615.750 L283.000,610.557 L285.250,605.078 L287.500,599.318 L289.750,593.285 L292.000,586.992 L294.250,580.456 L296.500,573.697 L298.750,566.738 L301.000,559.606 L303.250,552.333 L305.500,544.950 L307.750,537.494 L310.000,530.000 L312.250,522.506 L314.500,515.050 L316.750,507.667 L319.000,500.394 L321.250,493.262 L323.500,486.303 L325.750,479.544 L328.000,473.008 L330.250,466.715 L332.500,460.682 L334.750,454.922 L337.000,449.443 L339.250,444.250 L341.500,439.345 L343.750,434.728 L346.000,430.394 L348.250,426.340 L350.500,422.555 L352.750,419.033 L355.000,415.761 L357.250,412.729 L359.500,409.925 L361.750,407.337 L364.000,404.952 L366.250,402.757 L368.500,400.742 L370.750,398.892 L373.000,397.197 L375.250,395.646 L377.500,394.228 L379.750,392.932 L382.000,391.750 L384.250,390.671 L386.500,389.689 L388.750,388.794 L391.000,387.979 L393.250,387.238 L395.500,386.564 L397.750,385.952 L400.000,385.396 L402.250,384.891 L404.500,384.432 L406.750,384.016 L409.000,383.639 L411.250,383.296 L413.500,382.986 L415.750,382.704 L418.000,382.449 L420.250,382.217 L422.500,382.008 L424.750,381.818 L427.000,381.646 L429.250,381.490 L431.500,381.349 L433.750,381.221 L436.000,381.105 L438.250,381.000 L440.500,380.906 L442.750,380.820 L445.000,380.742 L447.250,380.671 L449.500,380.608 L451.750,380.550 L454.000,380.498 L456.250,380.450 L458.500,380.408 L460.750,380.369 L463.000,380.334 L465.250,380.302 L467.500,380.273 L469.750,380.247 L472.000,380.224 L474.250,380.203 L476.500,380.183 L478.750,380.166 L481.000,380.150 L483.250,380.136 L485.500,380.123 L487.750,380.111 L490.000,380.101 L492.250,380.091 L494.500,380.082 L496.750,380.075 L499.000,380.067 L501.250,380.061 L503.500,380.055 L505.750,380.050 L508.000,380.045 L510.250,380.041 L512.500,380.037 L514.750,380.033 L517.000,380.030 L519.250,380.027 L521.500,380.025 L523.750,380.022 L526.000,380.020 L528.250,380.018 L530.500,380.017 L532.750,380.015 L535.000,380.014 L537.250,380.012 L539.500,380.011 L541.750,380.010 L544.000,380.009 L546.250,380.008 L548.500,380.007 L550.750,380.007 L553.000,380.006 L555.250,380.006 L557.500,380.005 L559.750,380.005 L562.000,380.004 L564.250,380.004 L566.500,380.003 L568.750,380.003 L571.000,380.003 L573.250,380.002 L575.500,380.002 L577.750,380.002 L580.000,380.002"/>
<text class="note" x="52.000" y="404.000">Tanh</text>
<rect class="frame" x="620.000" y="380.000" width="540.000" height="300.000"/>
<line class="grid" x1="620.000" y1="380.000" x2="620.000" y2="680.000"/>
<line class="grid" x1="710.000" y1="380.000" x2="710.000" y2="680.000"/>
<line class="grid" x1="800.000" y1="380.000" x2="800.000" y2="680.000"/>
<line class="grid" x1="890.000" y1="380.000" x2="890.000" y2="680.000"/>
<line class="grid" x1="980.000" y1="380.000" x2="980.000" y2="680.000"/>
<line class="grid" x1="1070.000" y1="380.000" x2="1070.000" y2="680.000"/>
<line class="grid" x1="1160.000" y1="380.000" x2="1160.000" y2="680.000"/>
<line class="grid" x1="620.000" y1="680.000" x2="1160.000" y2="680.000"/>
<line class="grid" x1="620.000" y1="605.000" x2="1160.000" y2="605.000"/>
<line class="grid" x1="620.000" y1="530.000" x2="1160.000" y2="530.000"/>
<line class="grid" x1="620.000" y1="455.000" x2="1160.000" y2="455.000"/>
<line class="grid" x1="620.000" y1="380.000" x2="1160.000" y2="380.000"/>
<line class="axis" x1="890.000" y1="380.000" x2="890.000" y2="680.000"/>
<line class="axis" x1="620.000" y1="680.000" x2="1160.000" y2="680.000"/>
<path class="curve" d="M620.000,679.998 L622.250,679.998 L624.500,679.998 L626.750,679.998 L629.000,679.997 L631.250,679.997 L633.500,679.997 L635.750,679.996 L638.000,679.996 L640.250,679.995 L642.500,679.995 L644.750,679.994 L647.000,679.994 L649.250,679.993 L651.500,679.993 L653.750,679.992 L656.000,679.991 L658.250,679.990 L660.500,679.989 L662.750,679.988 L665.000,679.986 L667.250,679.985 L669.500,679.983 L671.750,679.982 L674.000,679.980 L676.250,679.978 L678.500,679.975 L680.750,679.973 L683.000,679.970 L685.250,679.967 L687.500,679.963 L689.750,679.960 L692.000,679.955 L694.250,679.951 L696.500,679.946 L698.750,679.940 L701.000,679.934 L703.250,679.927 L705.500,679.919 L707.750,679.911 L710.000,679.901 L712.250,679.891 L714.500,679.880 L716.750,679.867 L719.000,679.853 L721.250,679.838 L723.500,679.821 L725.750,679.803 L728.000,679.782 L730.250,679.760 L732.500,679.735 L734.750,679.707 L737.000,679.677 L739.250,679.644 L741.500,679.607 L743.750,679.566 L746.000,679.522 L748.250,679.473 L750.500,679.419 L752.750,679.359 L755.000,679.293 L757.250,679.221 L759.500,679.142 L761.750,679.054 L764.000,678.958 L766.250,678.852 L768.500,678.736 L770.750,678.608 L773.000,678.467 L775.250,678.313 L777.500,678.144 L779.750,677.957 L782.000,677.753 L784.250,677.529 L786.500,677.284 L788.750,677.015 L791.000,676.720 L793.250,676.398 L795.500,676.045 L797.750,675.659 L800.000,675.237 L802.250,674.776 L804.500,674.273 L806.750,673.725 L809.000,673.127 L811.250,672.476 L813.500,671.767 L815.750,670.996 L818.000,670.159 L820.250,669.251 L822.500,668.266 L824.750,667.200 L827.000,666.046 L829.250,664.800 L831.500,663.456 L833.750,662.007 L836.000,660.447 L838.250,658.772 L840.500,656.975 L842.750,655.050 L845.000,652.991 L847.250,650.793 L849.500,648.452 L851.750,645.962 L854.000,643.319 L856.250,640.520 L858.500,637.561 L860.750,634.441 L863.000,631.158 L865.250,627.712 L867.500,624.103 L869.750,620.333 L872.000,616.405 L874.250,612.323 L876.500,608.092 L878.750,603.717 L881.000,599.208 L883.250,594.571 L885.500,589.817 L887.750,584.956 L890.000,580.000 L892.250,574.960 L894.500,569.850 L896.750,564.683 L899.000,559.472 L901.250,554.231 L903.500,548.974 L905.750,543.715 L908.000,538.467 L910.250,533.243 L912.500,528.056 L914.750,522.917 L917.000,517.838 L919.250,512.830 L921.500,507.901 L923.750,503.061 L926.000,498.317 L928.250,493.676 L930.500,489.144 L932.750,484.727 L935.000,480.428 L937.250,476.250 L939.500,472.197 L941.750,468.270 L944.000,464.469 L946.250,460.796 L948.500,457.251 L950.750,453.832 L953.000,450.538 L955.250,447.369 L957.500,444.321 L959.750,441.393 L962.000,438.582 L964.250,435.886 L966.500,433.301 L968.750,430.825 L971.000,428.454 L973.250,426.184 L975.500,424.014 L977.750,421.939 L980.000,419.956 L982.250,418.062 L984.500,416.253 L986.750,414.526 L989.000,412.878 L991.250,411.305 L993.500,409.805 L995.750,408.375 L998.000,407.012 L1000.250,405.712 L1002.500,404.473 L1004.750,403.293 L1007.000,402.168 L1009.250,401.097 L1011.500,400.077 L1013.750,399.105 L1016.000,398.180 L1018.250,397.299 L1020.500,396.460 L1022.750,395.661 L1025.000,394.901 L1027.250,394.177 L1029.500,393.489 L1031.750,392.833 L1034.000,392.209 L1036.250,391.615 L1038.500,391.050 L1040.750,390.513 L1043.000,390.001 L1045.250,389.514 L1047.500,389.051 L1049.750,388.610 L1052.000,388.191 L1054.250,387.792 L1056.500,387.413 L1058.750,387.052 L1061.000,386.708 L1063.250,386.381 L1065.500,386.070 L1067.750,385.774 L1070.000,385.493 L1072.250,385.225 L1074.500,384.970 L1076.750,384.728 L1079.000,384.498 L1081.250,384.278 L1083.500,384.070 L1085.750,383.871 L1088.000,383.683 L1090.250,383.503 L1092.500,383.332 L1094.750,383.170 L1097.000,383.015 L1099.250,382.868 L1101.500,382.728 L1103.750,382.595 L1106.000,382.469 L1108.250,382.348 L1110.500,382.234 L1112.750,382.125 L1115.000,382.021 L1117.250,381.923 L1119.500,381.829 L1121.750,381.740 L1124.000,381.655 L1126.250,381.574 L1128.500,381.497 L1130.750,381.424 L1133.000,381.355 L1135.250,381.289 L1137.500,381.226 L1139.750,381.166 L1142.000,381.109 L1144.250,381.055 L1146.500,381.004 L1148.750,380.955 L1151.000,380.908 L1153.250,380.864 L1155.500,380.822 L1157.750,380.782 L1160.000,380.744"/>
<path class="curve2" d="M620.000,679.258 L622.250,679.220 L624.500,679.180 L626.750,679.139 L629.000,679.094 L631.250,679.048 L633.500,679.000 L635.750,678.948 L638.000,678.895 L640.250,678.838 L642.500,678.779 L644.750,678.717 L647.000,678.651 L649.250,678.582 L651.500,678.510 L653.750,678.434 L656.000,678.354 L658.250,678.270 L660.500,678.182 L662.750,678.090 L665.000,677.992 L667.250,677.890 L669.500,677.783 L671.750,677.670 L674.000,677.551 L676.250,677.427 L678.500,677.296 L680.750,677.159 L683.000,677.015 L685.250,676.863 L687.500,676.704 L689.750,676.537 L692.000,676.362 L694.250,676.178 L696.500,675.985 L698.750,675.782 L701.000,675.569 L703.250,675.345 L705.500,675.111 L707.750,674.864 L710.000,674.606 L712.250,674.335 L714.500,674.050 L716.750,673.752 L719.000,673.439 L721.250,673.111 L723.500,672.766 L725.750,672.405 L728.000,672.027 L730.250,671.630 L732.500,671.214 L734.750,670.778 L737.000,670.322 L739.250,669.844 L741.500,669.343 L743.750,668.818 L746.000,668.269 L748.250,667.694 L750.500,667.093 L752.750,666.464 L755.000,665.806 L757.250,665.118 L759.500,664.399 L761.750,663.647 L764.000,662.862 L766.250,662.043 L768.500,661.188 L770.750,660.295 L773.000,659.364 L775.250,658.394 L777.500,657.383 L779.750,656.331 L782.000,655.235 L784.250,654.095 L786.500,652.911 L788.750,651.680 L791.000,650.402 L793.250,649.076 L795.500,647.702 L797.750,646.279 L800.000,644.807 L802.250,643.285 L804.500,641.713 L806.750,640.091 L809.000,638.420 L811.250,636.700 L813.500,634.932 L815.750,633.118 L818.000,631.259 L820.250,629.356 L822.500,627.413 L824.750,625.432 L827.000,623.415 L829.250,621.368 L831.500,619.294 L833.750,617.197 L836.000,615.083 L838.250,612.958 L840.500,610.828 L842.750,608.700 L845.000,606.581 L847.250,604.480 L849.500,602.404 L851.750,600.362 L854.000,598.364 L856.250,596.420 L858.500,594.538 L860.750,592.729 L863.000,591.004 L865.250,589.371 L867.500,587.841 L869.750,586.424 L872.000,585.128 L874.250,583.962 L876.500,582.934 L878.750,582.051 L881.000,581.320 L883.250,580.746 L885.500,580.333 L887.750,580.083 L890.000,580.000 L892.250,580.083 L894.500,580.333 L896.750,580.746 L899.000,581.320 L901.250,582.051 L903.500,582.934 L905.750,583.962 L908.000,585.128 L910.250,586.424 L912.500,587.841 L914.750,589.371 L917.000,591.004 L919.250,592.729 L921.500,594.538 L923.750,596.420 L926.000,598.364 L928.250,600.362 L930.500,602.404 L932.750,604.480 L935.000,606.581 L937.250,608.700 L939.500,610.828 L941.750,612.958 L944.000,615.083 L946.250,617.197 L948.500,619.294 L950.750,621.368 L953.000,623.415 L955.250,625.432 L957.500,627.413 L959.750,629.356 L962.000,631.259 L964.250,633.118 L966.500,634.932 L968.750,636.700 L971.000,638.420 L973.250,640.091 L975.500,641.713 L977.750,643.285 L980.000,644.807 L982.250,646.279 L984.500,647.702 L986.750,649.076 L989.000,650.402 L991.250,651.680 L993.500,652.911 L995.750,654.095 L998.000,655.235 L1000.250,656.331 L1002.500,657.383 L1004.750,658.394 L1007.000,659.364 L1009.250,660.295 L1011.500,661.188 L1013.750,662.043 L1016.000,662.862 L1018.250,663.647 L1020.500,664.399 L1022.750,665.118 L1025.000,665.806 L1027.250,666.464 L1029.500,667.093 L1031.750,667.694 L1034.000,668.269 L1036.250,668.818 L1038.500,669.343 L1040.750,669.844 L1043.000,670.322 L1045.250,670.778 L1047.500,671.214 L1049.750,671.630 L1052.000,672.027 L1054.250,672.405 L1056.500,672.766 L1058.750,673.111 L1061.000,673.439 L1063.250,673.752 L1065.500,674.050 L1067.750,674.335 L1070.000,674.606 L1072.250,674.864 L1074.500,675.111 L1076.750,675.345 L1079.000,675.569 L1081.250,675.782 L1083.500,675.985 L1085.750,676.178 L1088.000,676.362 L1090.250,676.537 L1092.500,676.704 L1094.750,676.863 L1097.000,677.015 L1099.250,677.159 L1101.500,677.296 L1103.750,677.427 L1106.000,677.551 L1108.250,677.670 L1110.500,677.783 L1112.750,677.890 L1115.000,677.992 L1117.250,678.090 L1119.500,678.182 L1121.750,678.270 L1124.000,678.354 L1126.250,678.434 L1128.500,678.510 L1130.750,678.582 L1133.000,678.651 L1135.250,678.717 L1137.500,678.779 L1139.750,678.838 L1142.000,678.895 L1144.250,678.948 L1146.500,679.000 L1148.750,679.048 L1151.000,679.094 L1153.250,679.139 L1155.500,679.180 L1157.750,679.220 L1160.000,679.258"/>
<path class="curve3" d="M620.000,380.744 L622.250,380.782 L624.500,380.822 L626.750,380.864 L629.000,380.908 L631.250,380.955 L633.500,381.004 L635.750,381.055 L638.000,381.109 L640.250,381.166 L642.500,381.226 L644.750,381.289 L647.000,381.355 L649.250,381.424 L651.500,381.497 L653.750,381.574 L656.000,381.655 L658.250,381.740 L660.500,381.829 L662.750,381.923 L665.000,382.021 L667.250,382.125 L669.500,382.234 L671.750,382.348 L674.000,382.469 L676.250,382.595 L678.500,382.728 L680.750,382.868 L683.000,383.015 L685.250,383.170 L687.500,383.332 L689.750,383.503 L692.000,383.683 L694.250,383.871 L696.500,384.070 L698.750,384.278 L701.000,384.498 L703.250,384.728 L705.500,384.970 L707.750,385.225 L710.000,385.493 L712.250,385.774 L714.500,386.070 L716.750,386.381 L719.000,386.708 L721.250,387.052 L723.500,387.413 L725.750,387.792 L728.000,388.191 L730.250,388.610 L732.500,389.051 L734.750,389.514 L737.000,390.001 L739.250,390.513 L741.500,391.050 L743.750,391.615 L746.000,392.209 L748.250,392.833 L750.500,393.489 L752.750,394.177 L755.000,394.901 L757.250,395.661 L759.500,396.460 L761.750,397.299 L764.000,398.180 L766.250,399.105 L768.500,400.077 L770.750,401.097 L773.000,402.168 L775.250,403.293 L777.500,404.473 L779.750,405.712 L782.000,407.012 L784.250,408.375 L786.500,409.805 L788.750,411.305 L791.000,412.878 L793.250,414.526 L795.500,416.253 L797.750,418.062 L800.000,419.956 L802.250,421.939 L804.500,424.014 L806.750,426.184 L809.000,428.454 L811.250,430.825 L813.500,433.301 L815.750,435.886 L818.000,438.582 L820.250,441.393 L822.500,444.321 L824.750,447.369 L827.000,450.538 L829.250,453.832 L831.500,457.251 L833.750,460.796 L836.000,464.469 L838.250,468.270 L840.500,472.197 L842.750,476.250 L845.000,480.428 L847.250,484.727 L849.500,489.144 L851.750,493.676 L854.000,498.317 L856.250,503.061 L858.500,507.901 L860.750,512.830 L863.000,517.838 L865.250,522.917 L867.500,528.056 L869.750,533.243 L872.000,538.467 L874.250,543.715 L876.500,548.974 L878.750,554.231 L881.000,559.472 L883.250,564.683 L885.500,569.850 L887.750,574.960 L890.000,580.000 L892.250,584.956 L894.500,589.817 L896.750,594.571 L899.000,599.208 L901.250,603.717 L903.500,608.092 L905.750,612.323 L908.000,616.405 L910.250,620.333 L912.500,624.103 L914.750,627.712 L917.000,631.158 L919.250,634.441 L921.500,637.561 L923.750,640.520 L926.000,643.319 L928.250,645.962 L930.500,648.452 L932.750,650.793 L935.000,652.991 L937.250,655.050 L939.500,656.975 L941.750,658.772 L944.000,660.447 L946.250,662.007 L948.500,663.456 L950.750,664.800 L953.000,666.046 L955.250,667.200 L957.500,668.266 L959.750,669.251 L962.000,670.159 L964.250,670.996 L966.500,671.767 L968.750,672.476 L971.000,673.127 L973.250,673.725 L975.500,674.273 L977.750,674.776 L980.000,675.237 L982.250,675.659 L984.500,676.045 L986.750,676.398 L989.000,676.720 L991.250,677.015 L993.500,677.284 L995.750,677.529 L998.000,677.753 L1000.250,677.957 L1002.500,678.144 L1004.750,678.313 L1007.000,678.467 L1009.250,678.608 L1011.500,678.736 L1013.750,678.852 L1016.000,678.958 L1018.250,679.054 L1020.500,679.142 L1022.750,679.221 L1025.000,679.293 L1027.250,679.359 L1029.500,679.419 L1031.750,679.473 L1034.000,679.522 L1036.250,679.566 L1038.500,679.607 L1040.750,679.644 L1043.000,679.677 L1045.250,679.707 L1047.500,679.735 L1049.750,679.760 L1052.000,679.782 L1054.250,679.803 L1056.500,679.821 L1058.750,679.838 L1061.000,679.853 L1063.250,679.867 L1065.500,679.880 L1067.750,679.891 L1070.000,679.901 L1072.250,679.911 L1074.500,679.919 L1076.750,679.927 L1079.000,679.934 L1081.250,679.940 L1083.500,679.946 L1085.750,679.951 L1088.000,679.955 L1090.250,679.960 L1092.500,679.963 L1094.750,679.967 L1097.000,679.970 L1099.250,679.973 L1101.500,679.975 L1103.750,679.978 L1106.000,679.980 L1108.250,679.982 L1110.500,679.983 L1112.750,679.985 L1115.000,679.986 L1117.250,679.988 L1119.500,679.989 L1121.750,679.990 L1124.000,679.991 L1126.250,679.992 L1128.500,679.993 L1130.750,679.993 L1133.000,679.994 L1135.250,679.994 L1137.500,679.995 L1139.750,679.995 L1142.000,679.996 L1144.250,679.996 L1146.500,679.997 L1148.750,679.997 L1151.000,679.997 L1153.250,679.998 L1155.500,679.998 L1157.750,679.998 L1160.000,679.998"/>
<text class="note" x="632.000" y="404.000">Softmax (3-class example)</text>
</svg>